<svg xmlns="http://www.w3.org/2000/svg">

    <symbol id="errorIcon" width="20" height="20" viewBox="0 0 20 20" fill="none" >
        <path d="M6.29799 18.7529L6.2982 18.753C7.44955 19.2501 8.68179 19.5 10 19.5C11.3182 19.5 12.5505 19.2501 13.7018 18.753L13.702 18.7529C14.863 18.2522 15.868 17.5749 16.7214 16.7214C17.5749 15.868 18.2522 14.863 18.7529 13.702L18.753 13.7018C19.2501 12.5505 19.5 11.3182 19.5 10C19.5 8.68179 19.2501 7.44955 18.753 6.2982L18.7529 6.29799C18.2522 5.13697 17.5749 4.13201 16.7214 3.27855C15.868 2.4251 14.863 1.74747 13.702 1.24613L6.29799 18.7529ZM6.29799 18.7529C5.13697 18.2522 4.13201 17.5749 3.27855 16.7214C2.42509 15.868 1.7478 14.863 1.24713 13.702L1.24704 13.7018M6.29799 18.7529L1.24704 13.7018M1.24704 13.7018C0.74991 12.5505 0.5 11.3182 0.5 10C0.5 8.68179 0.74991 7.44955 1.24704 6.2982L1.24713 6.29799M1.24704 13.7018L1.24713 6.29799M1.24713 6.29799C1.7478 5.13697 2.42509 4.13201 3.27855 3.27855M1.24713 6.29799L3.27855 3.27855M3.27855 3.27855C4.13201 2.4251 5.13697 1.74747 6.29799 1.24613L3.27855 3.27855ZM9.63393 10.364L9.6333 10.3634C9.54728 10.2812 9.5 10.182 9.5 10.025V6C9.5 5.84285 9.54777 5.73434 9.64155 5.64055C9.73431 5.5478 9.84232 5.5 10 5.5C10.1641 5.5 10.2752 5.54839 10.3675 5.63641C10.4528 5.71832 10.5 5.8177 10.5 5.975V10C10.5 10.1577 10.4522 10.2657 10.3594 10.3584C10.2657 10.4522 10.1572 10.5 10 10.5C9.83576 10.5 9.72532 10.4516 9.63393 10.364ZM9.64217 14.3591L9.64094 14.3578C9.54773 14.2649 9.5 14.1571 9.5 14C9.5 13.8428 9.54777 13.7343 9.64155 13.6406C9.73431 13.5478 9.84232 13.5 10 13.5C10.1574 13.5 10.2659 13.5476 10.3594 13.6406C10.4524 13.7341 10.5 13.8426 10.5 14C10.5 14.1577 10.4522 14.2657 10.3594 14.3584C10.2657 14.4522 10.1572 14.5 10 14.5C9.84287 14.5 9.73505 14.4523 9.64217 14.3591ZM16.0165 16.0166L16.0166 16.0165C17.669 14.3634 18.5 12.3484 18.5 10C18.5 7.65163 17.669 5.63656 16.0166 3.98352L16.0165 3.98337C14.3634 2.33104 12.3484 1.5 10 1.5C7.65163 1.5 5.63685 2.33104 3.98445 3.98345C2.33142 5.63647 1.5 7.65156 1.5 10C1.5 12.3484 2.33142 14.3635 3.98445 16.0166C5.63685 17.669 7.65163 18.5 10 18.5C12.3484 18.5 14.3634 17.669 16.0165 16.0166ZM6.2982 1.24604C7.44953 0.749581 8.68178 0.5 10 0.5C11.3182 0.5 12.5505 0.749581 13.7018 1.24604H6.2982Z" stroke="white"/>
    </symbol>

    <symbol id="successIcon" width="22" height="22" viewBox="0 0 22 22" fill="none" >
        <path fill-rule="evenodd" clip-rule="evenodd" d="M8.06683 10.0306L9.69223 11.6571L14.4982 6.85112C14.6735 6.67391 14.8821 6.53293 15.1119 6.43624C15.3431 6.33898 15.5913 6.28847 15.8421 6.2876C16.0929 6.28672 16.3414 6.33552 16.5732 6.43117C16.8051 6.52681 17.0157 6.66742 17.193 6.84487C17.3702 7.02233 17.5106 7.23312 17.6059 7.46509C17.7013 7.69706 17.7498 7.94561 17.7487 8.19642C17.7475 8.44722 17.6967 8.69532 17.5991 8.92639C17.5023 9.15587 17.3613 9.36405 17.1841 9.53909L11.0394 15.6853C11.0389 15.6858 11.0384 15.6864 11.0378 15.6869C10.8618 15.8639 10.6526 16.0044 10.4221 16.1004C10.191 16.1967 9.94311 16.2462 9.69275 16.2462C9.44239 16.2462 9.1945 16.1967 8.96338 16.1004C8.73298 16.0044 8.52379 15.8639 8.3478 15.687C8.34724 15.6865 8.34669 15.6859 8.34613 15.6853L5.37889 12.7181C5.02248 12.3617 4.82225 11.8783 4.82225 11.3743C4.82225 10.8702 5.02248 10.3868 5.37889 10.0304C5.55537 9.85392 5.76488 9.71393 5.99546 9.61842C6.22604 9.52291 6.47317 9.47375 6.72275 9.47375C6.97233 9.47375 7.21946 9.52291 7.45004 9.61842C7.68062 9.71393 7.89036 9.85414 8.06683 10.0306ZM9.056 14.981L6.086 12.011C5.91712 11.8421 5.82225 11.6131 5.82225 11.3743C5.82225 11.1354 5.91712 10.9064 6.086 10.7375C6.16962 10.6539 6.26889 10.5876 6.37814 10.5423C6.4874 10.497 6.60449 10.4737 6.72275 10.4737C6.84101 10.4737 6.9581 10.497 7.06736 10.5423C7.17661 10.5876 7.27588 10.6539 7.3595 10.7375L9.692 13.0715L15.2075 7.556C15.2909 7.47136 15.3902 7.40407 15.4997 7.358C15.6092 7.31193 15.7267 7.288 15.8455 7.28759C15.9644 7.28718 16.0821 7.31029 16.1919 7.3556C16.3017 7.4009 16.4015 7.46751 16.4854 7.55156C16.5694 7.63562 16.6359 7.73547 16.6811 7.84535C16.7262 7.95523 16.7492 8.07297 16.7487 8.19177C16.7481 8.31057 16.724 8.42809 16.6778 8.53755C16.6316 8.647 16.5642 8.74623 16.4795 8.8295L10.3295 14.981C10.2461 15.065 10.1469 15.1317 10.0376 15.1773C9.92835 15.2228 9.81114 15.2462 9.69275 15.2462C9.57436 15.2462 9.45715 15.2228 9.34786 15.1773C9.23858 15.1317 9.13938 15.065 9.056 14.981ZM17.7175 4.28249C15.9359 2.50089 13.5196 1.5 11 1.5C8.48044 1.5 6.06408 2.50089 4.28249 4.28249C2.50089 6.06408 1.5 8.48044 1.5 11C1.5 13.5196 2.50089 15.9359 4.28249 17.7175C6.06408 19.4991 8.48044 20.5 11 20.5C13.5196 20.5 15.9359 19.4991 17.7175 17.7175C19.4991 15.9359 20.5 13.5196 20.5 11C20.5 8.48044 19.4991 6.06408 17.7175 4.28249ZM18.4246 3.57538C16.4555 1.60625 13.7848 0.5 11 0.5C8.21523 0.5 5.54451 1.60625 3.57538 3.57538C1.60625 5.54451 0.5 8.21523 0.5 11C0.5 13.7848 1.60625 16.4555 3.57538 18.4246C5.54451 20.3938 8.21523 21.5 11 21.5C13.7848 21.5 16.4555 20.3938 18.4246 18.4246C20.3938 16.4555 21.5 13.7848 21.5 11C21.5 8.21523 20.3938 5.54451 18.4246 3.57538Z" fill="white"/>
    </symbol>

    <symbol id="buyNowIcon"  width="18" height="20" viewBox="0 0 18 20" fill="none">
        <path d="M16.875 6.42109H11.7117L16.3547 0.554688C16.4508 0.430469 16.3641 0.25 16.207 0.25H7.21876C7.15314 0.25 7.08986 0.285156 7.05705 0.34375L0.984389 10.832C0.911733 10.9563 1.0008 11.1133 1.14611 11.1133H5.23361L3.1383 19.4945C3.09376 19.6773 3.31408 19.8062 3.45001 19.675L17.0039 6.74219C17.1258 6.62734 17.0438 6.42109 16.875 6.42109ZM5.86408 15.168L7.27736 9.51953H3.5883L8.03205 1.84609H13.2961L8.41408 8.01719H13.3594L5.86408 15.168Z" fill="white"/>
    </symbol>

    <symbol id="addToaddToCartIcon" width="21" height="21" viewBox="0 0 21 21" fill="none">
        <path d="M10 8H12V5H15V3H12V0H10V3H7V5H10V8ZM6 17C4.9 17 4.01 17.9 4.01 19C4.01 20.1 4.9 21 6 21C7.1 21 8 20.1 8 19C8 17.9 7.1 17 6 17ZM16 17C14.9 17 14.01 17.9 14.01 19C14.01 20.1 14.9 21 16 21C17.1 21 18 20.1 18 19C18 17.9 17.1 17 16 17ZM6.17 13.75L6.2 13.63L7.1 12H14.55C15.3 12 15.96 11.59 16.3 10.97L20.16 3.96L18.42 3H18.41L17.31 5L14.55 10H7.53L7.4 9.73L5.16 5L4.21 3L3.27 1H0V3H2L5.6 10.59L4.25 13.04C4.09 13.32 4 13.65 4 14C4 15.1 4.9 16 6 16H18V14H6.42C6.29 14 6.17 13.89 6.17 13.75Z" fill="white"/>
    </symbol>


    <symbol id="cartIcon" width="20" height="20" viewBox="0 0 20 20" fill="none">
        <path d="M6 20C5.45 20 4.979 19.804 4.587 19.412C4.195 19.02 3.99933 18.5493 4 18C4 17.45 4.196 16.979 4.588 16.587C4.98 16.195 5.45067 15.9993 6 16C6.55 16 7.021 16.196 7.413 16.588C7.805 16.98 8.00067 17.4507 8 18C8 18.55 7.804 19.021 7.412 19.413C7.02 19.805 6.54933 20.0007 6 20ZM16 20C15.45 20 14.979 19.804 14.587 19.412C14.195 19.02 13.9993 18.5493 14 18C14 17.45 14.196 16.979 14.588 16.587C14.98 16.195 15.4507 15.9993 16 16C16.55 16 17.021 16.196 17.413 16.588C17.805 16.98 18.0007 17.4507 18 18C18 18.55 17.804 19.021 17.412 19.413C17.02 19.805 16.5493 20.0007 16 20ZM5.15 4L7.55 9H14.55L17.3 4H5.15ZM4.2 2H18.95C19.3333 2 19.625 2.171 19.825 2.513C20.025 2.855 20.0333 3.20067 19.85 3.55L16.3 9.95C16.1167 10.2833 15.8707 10.5417 15.562 10.725C15.2533 10.9083 14.916 11 14.55 11H7.1L6 13H18V15H6C5.25 15 4.68333 14.6707 4.3 14.012C3.91667 13.3533 3.9 12.6993 4.25 12.05L5.6 9.6L2 2H0V0H3.25L4.2 2Z" fill="white"/>
    </symbol>


</svg>  